<?xml version="1.0" encoding="utf-8"?>
<!-- Generator: Adobe Illustrator 25.2.3, SVG Export Plug-In . SVG Version: 6.00 Build 0)  -->
<svg version="1.1" id="Layer_1" xmlns="http://www.w3.org/2000/svg" xmlns:xlink="http://www.w3.org/1999/xlink" x="0px" y="0px"
	 viewBox="0 0 1000 1000" style="enable-background:new 0 0 1000 1000;" xml:space="preserve">
<style type="text/css">
	.st0{fill:#FFFFFF;}
</style>
<path class="st0" d="M969.6,592.2H30.4C13.6,592.2,0,578.6,0,561.8V450.1c0-16.8,13.6-30.4,30.4-30.4h939.2
	c16.8,0,30.4,13.6,30.4,30.4v111.7C1000,578.6,986.4,592.2,969.6,592.2z"/>
<path class="st0" d="M413.8,969.6V30.4c0-16.8,13.6-30.4,30.4-30.4h111.7c16.8,0,30.4,13.6,30.4,30.4v939.2
	c0,16.8-13.6,30.4-30.4,30.4H444.2C427.4,1000,413.8,986.4,413.8,969.6z"/>
</svg>
